<?xml version="1.0" encoding="utf-8" ?>
<svg xmlns="http://www.w3.org/2000/svg" xmlns:xlink="http://www.w3.org/1999/xlink" width="24" height="24" viewBox="0 0 24 24">
	<defs>
		<clipPath id="clipPath9275705544">
			<path transform="matrix(1 0 0 1 0 0)" d="M0 0L24 0L24 24L0 24L0 0Z" fill-rule="nonzero"/>
		</clipPath>
	</defs>
	<g clip-path="url(#clipPath9275705544)">
		<path transform="matrix(1 0 0 1 0 0)" d="M9.66667 11.2167C10.9917 10.5833 11.6833 9.625 11.6833 8.13333C11.6833 5.19167 9.49167 4.475 6.9625 4.475L0 4.475L0 19.2417L7.15833 19.2417C9.84167 19.2417 12.3625 17.9542 12.3625 14.9542C12.3625 13.1 11.4833 11.7292 9.66667 11.2167M3.24583 6.99583L6.29167 6.99583C7.4625 6.99583 8.51667 7.325 8.51667 8.68333C8.51667 9.9375 7.69583 10.4417 6.5375 10.4417L3.24583 10.4417L3.24583 6.99583M6.71667 16.7333L3.24583 16.7333L3.24583 12.6667L6.78333 12.6667C8.2125 12.6667 9.11667 13.2625 9.11667 14.775C9.11667 16.2667 8.0375 16.7333 6.71667 16.7333M21.6542 6.70417L15.6667 6.70417L15.6667 5.25L21.6542 5.25L21.6542 6.70417M24 14.05C24 10.8875 22.15 8.25 18.7958 8.25C15.5375 8.25 13.325 10.7 13.325 13.9083C13.325 17.2375 15.4208 19.5208 18.7958 19.5208C21.35 19.5208 23.0042 18.3708 23.8 15.925L21.2083 15.925C20.9292 16.8375 19.7792 17.3208 18.8875 17.3208C17.1667 17.3208 16.2625 16.3125 16.2625 14.6L23.975 14.6C23.9875 14.425 24 14.2375 24 14.05M16.2667 12.75C16.3625 11.3458 17.2958 10.4667 18.7042 10.4667C20.1792 10.4667 20.9208 11.3333 21.0458 12.75L16.2667 12.75" fill-rule="nonzero" fill="rgb(75, 85, 99)"/>
	</g>
</svg>
