<?xml version="1.0" encoding="utf-8" ?>
<svg xmlns="http://www.w3.org/2000/svg" xmlns:xlink="http://www.w3.org/1999/xlink" width="20" height="20" viewBox="0 0 20 20">
	<defs>
		<clipPath id="clipPath4702389106">
			<path transform="matrix(1 0 0 1 0 0)" d="M0 0L20 0L20 20L0 20L0 0Z" fill-rule="nonzero"/>
		</clipPath>
	</defs>
	<g clip-path="url(#clipPath4702389106)">
		<path transform="matrix(1 0 0 1 0 0)" d="M16.6667 3.33333L3.33333 3.33333C2.41667 3.33333 1.675 4.08333 1.675 5L1.66667 15C1.66667 15.9167 2.41667 16.6667 3.33333 16.6667L16.6667 16.6667C17.5833 16.6667 18.3333 15.9167 18.3333 15L18.3333 5C18.3333 4.08333 17.5833 3.33333 16.6667 3.33333M16.6667 6.66667L10 10.8333L3.33333 6.66667L3.33333 5L10 9.16667L16.6667 5L16.6667 6.66667" fill-rule="nonzero" fill="rgb(75, 85, 99)"/>
	</g>
</svg>
