<?xml version="1.0" encoding="utf-8" ?>
<svg xmlns="http://www.w3.org/2000/svg" xmlns:xlink="http://www.w3.org/1999/xlink" width="24" height="24" viewBox="0 0 24 24">
	<defs>
		<clipPath id="clipPath7374727803">
			<path transform="matrix(1 0 0 1 0 0)" d="M0 0L24 0L24 24L0 24L0 0Z" fill-rule="nonzero"/>
		</clipPath>
	</defs>
	<g clip-path="url(#clipPath7374727803)">
		<path transform="matrix(1 0 0 1 0 0)" d="M21 1.5L2.99531 1.5C2.17031 1.5 1.5 2.17969 1.5 3.01406L1.5 20.9859C1.5 21.8203 2.17031 22.5 2.99531 22.5L21 22.5C21.825 22.5 22.5 21.8203 22.5 20.9859L22.5 3.01406C22.5 2.17969 21.825 1.5 21 1.5M7.84688 19.5L4.73438 19.5L4.73438 9.47812L7.85156 9.47812L7.85156 19.5M6.29063 8.10938C5.29219 8.10938 4.48594 7.29844 4.48594 6.30469C4.48594 5.31094 5.29219 4.5 6.29063 4.5C7.28438 4.5 8.09531 5.31094 8.09531 6.30469C8.09531 7.30312 7.28906 8.10938 6.29063 8.10938M19.5141 19.5L16.4016 19.5L16.4016 14.625C16.4016 13.4625 16.3781 11.9672 14.7844 11.9672C13.1625 11.9672 12.9141 13.2328 12.9141 14.5406L12.9141 19.5L9.80156 19.5L9.80156 9.47812L12.7875 9.47812L12.7875 10.8469L12.8297 10.8469C13.2469 10.0594 14.2641 9.22969 15.7781 9.22969C18.9281 9.22969 19.5141 11.3063 19.5141 14.0063L19.5141 19.5" fill-rule="nonzero" fill="rgb(75, 85, 99)"/>
	</g>
</svg>
